# xmcd
#
# Track frame offsets: 
#        150
#        11823
#        23458
#        30584
#        42396
#        54410
#        63962
#        68401
#        79287
#        86670
#        89915
#        94250
#        103893
#        108578
#        117516
#        122039
#        135219
#        143103
#        160498
#        165285
#        181043
#        186831
#        197107
#        209480
#        221511
#        231760
#        242231
#        253386
#        264761
#        280681
#        294331
#
# Disc length: 4041 seconds
#
# Revision: 0
# Processed by: cddbd v1.5.2PL0 Copyright (c) Steve Scherf et al.
# Submitted via: ExactAudioCopy v1.0b3
#
DISCID=bc0fc71f
DTITLE=Ecoles Qui Chantent - Es Singen Die Schulen CD1
DYEAR=2013
DGENRE=Enfance
TTITLE0=Meine Schulsachen
TTITLE1=Alle Kinder lernen lesen
TTITLE2=Die Schuler sind ja so toll
TTITLE3=Versteckspiel
TTITLE4=Die Schule Fängt an
TTITLE5=Lasst uns miteinander
TTITLE6=Brüderchen, Komm tanz mit mir
TTITLE7=Das Wachmacherlied
TTITLE8=Sassa, die Vogelscheuche
TTITLE9=Meine Hände
TTITLE10=Punkt, Punkkt, Komma, Strich
TTITLE11=Die Finger
TTITLE12=Der Clown
TTITLE13=Bunt ist gesund
TTITLE14=In welchem Stock ?
TTITLE15=Packen
TTITLE16=Liebe Sonne, Komm Heraus
TTITLE17=Herzlich Willkommen
TTITLE18=Hurra, es schneit !
TTITLE19=Wisst ihr, was die frösche am Weihnachtsabend machen ?
TTITLE20=Hopp, Hopp, Hopp
TTITLE21=Der Tierblues
TTITLE22=Mobo Djudju
TTITLE23=Früher und heute
TTITLE24=Sag Danke schön
TTITLE25=Öko-Logisch
TTITLE26=Ich singe Europa
TTITLE27=Guten Morgen, Gute Nacht
TTITLE28=Es leben die Kinder
TTITLE29=Bist du Fit für meinen Hit ?
TTITLE30=Ferienzeit
EXTD=
EXTT0=
EXTT1=
EXTT2=
EXTT3=
EXTT4=
EXTT5=
EXTT6=
EXTT7=
EXTT8=
EXTT9=
EXTT10=
EXTT11=
EXTT12=
EXTT13=
EXTT14=
EXTT15=
EXTT16=
EXTT17=
EXTT18=
EXTT19=
EXTT20=
EXTT21=
EXTT22=
EXTT23=
EXTT24=
EXTT25=
EXTT26=
EXTT27=
EXTT28=
EXTT29=
EXTT30=
PLAYORDER=
